<svg
            id="bookicon" 
            xmlns="http://www.w3.org/2000/svg"
        >
            <defs>
                <linearGradient x1="50%" y1="0%" x2="50%" y2="100%" id="a">
                    <stop stopColor="#980F20" offset="0%" />
                    <stop stopColor="#860E1D" offset="100%" />
                </linearGradient>
            </defs>
            <path
                d="M177.833 8.333V66.18l-4.166.488V0c-16.23.496-31.271 3.175-41.675 9.65C121.592 3.175 106.567.496 90.333 0v66.667l-4.166-.488V8.333H82v62.5h37.737c6.163 0 6.838 4.167 12.255 4.167 5.433 0 6.087-4.167 12.258-4.167H182v-62.5h-4.167zm-50 56.855c-8.108-3.217-17.237-5.288-29.166-6.184V8.792c9.8.82 20.816 2.812 29.166 8.008v48.388zm37.5-6.184c-11.929.896-21.058 2.967-29.166 6.184V16.8c8.35-5.196 19.366-7.188 29.166-8.008v50.212z"
                transform="translate(-82)"
                fill="url(#a)"
                fillRule="nonzero"
            />
        </svg>